{"title":"Knight And Day CAM XViD - IMAGiNE[ExtraTorrent]","uid":5648976,"size":1481037706,"categoryP":"video","categoryS":"movies","magnet":"?xt=urn:btih:0e0bf07e34d12a7e8b4543cdd7cc1858c10c48da&amp;dn=Knight+And+Day+CAM+XViD+-+IMAGiNE%5BExtraTorrent%5D&amp;tr=udp%3A%2F%2Ftracker.openbittorrent.com%3A80&amp;tr=udp%3A%2F%2Fopen.demonii.com%3A1337&amp;tr=udp%3A%2F%2Ftracker.coppersurfer.tk%3A6969&amp;tr=udp%3A%2F%2Fexodus.desync.com%3A6969","seeders":0,"leechers":0,"uploader":"SaM","files":102,"time":1277596706,"description":"extratorrent.com &lt;a href=&quot;\nhttp://extratorrent.com/torrent/2257457/&quot; rel=&quot;nofollow&quot; target=&quot;_NEW&quot;&gt;\nhttp://extratorrent.com/torrent/2257457/&lt;/a&gt;\n\n********************************************************************************************************************                                \n                                   Knight And Day CAM XViD - IMAGiNE\n********************************************************************************************************************\n\nRipper ...........: IMAGiNE                                        IMDB Rating.......:6.9/10                             \nVideo Codec.......: XVID                                         Release Date......:26/06/10\nAudio Codec.......:MP3                                           Theatre Date......:23/06/10\nAudio Bitrate.....:128                                              Runtime.......:1h 44mn\nSubtitles.........:NIL                                                 Language..........:ENGLISH\nResolution...... 636 x 290                                      IMDb URL..........:http://www.imdb.com/title/tt1013743/\n\n\nDETAILS:\n\nVideo\nID                               : 0\nFormat                           : MPEG-4 Visual\nFormat profile                   : Advanced Simple@L5\nFormat settings, BVOP            : Yes\nFormat settings, QPel            : No\nFormat settings, GMC             : No warppoints\nFormat settings, Matrix          : Default (MPEG)\nMuxing mode                      : Packed bitstream\nCodec ID                         : XVID\nCodec ID/Hint                    : XviD\nDuration                         : 1h 44mn\nBit rate                         : 1 741 Kbps\nWidth                            : 636 pixels\nHeight                           : 290 pixels\nDisplay aspect ratio             : 2.2\nFrame rate                       : 25.000 fps\nResolution                       : 24 bits\nColorimetry                      : 4:2:0\nScan type                        : Progressive\nBits/(Pixel*Frame)               : 0.378\nStream size                      : 1.27 GiB (100%)\nWriting library                  : XviD 1.2.1 (UTC 2008-12-04)\n\n\nAudio\nFormat                           : MPEG Audio\nFormat version                   : Version 1\nFormat profile                   : Layer 3\nDuration                         : 1h 44mn\nBit rate mode                    : Constant\nBit rate                         : 128 Kbps\nChannel(s)                       : 2 channels\nSampling rate                    : 44.1 KHz\nResolution                       : 16 bits\nStream size                      : 95.3 MiB (100%)\n\n\nNOTES:\n\nIMAGiNE bringing you another release.....Knight And Day\n\nSources used are relizlab video and prisms audio .....thanks to both.\nWell the video was ok not too bad for a cam but like all cams had issues ....camera movement,too strong on the chroma,looked\na bit washed out and the rgb colours off....specially the red.\nAudio seems to be insync after scrolling through prisms release,so nice job guys.....the audio itself seemed ok for cam but a bit lifeless and\nalso had some noise to it and tinny.\nWorked done well firstly we stripped prisms audio and remastered it in adobe audition ...using a hiss and noise filters and also changing the EQ,\nadding more bass and adding some depth to the voices.Then it was a case of resaving and muxing to our encoded video.\nThe video .....well for this we messed with the rgb colours to try and balance them out also added more contrast and lowered the brightness a touch,also\nneeded to lower the chroma alot.....and finally used a smoother aswell.\n\nEnjoy","torrent":{"xt":"urn:btih:0e0bf07e34d12a7e8b4543cdd7cc1858c10c48da","amp;dn":"Knight+And+Day+CAM+XViD+-+IMAGiNE%5BExtraTorrent%5D","amp;tr":["udp%3A%2F%2Ftracker.openbittorrent.com%3A80","udp%3A%2F%2Fopen.demonii.com%3A1337","udp%3A%2F%2Ftracker.coppersurfer.tk%3A6969","udp%3A%2F%2Fexodus.desync.com%3A6969"],"infoHash":"0e0bf07e34d12a7e8b4543cdd7cc1858c10c48da","infoHashBuffer":{"type":"Buffer","data":[14,11,240,126,52,209,42,126,139,69,67,205,215,204,24,88,193,12,72,218]},"announce":[],"urlList":[]}}